<svg xmlns="http://www.w3.org/2000/svg" width="41" height="41" viewBox="0 0 41 41"><defs><style>.a,.b{fill:#ff3100;}.b{font-size:13px;font-family:Seravek-Light, Seravek;font-weight:300;}</style></defs><g transform="translate(-886 -172)"><path class="a" d="M92.341,6.808h-.335L90.828,1.442A1.846,1.846,0,0,0,89.037,0H83.479a.367.367,0,0,0,0,.734h4.466l-.607,3.792a.61.61,0,0,1-.6.516H79.144a.61.61,0,0,1-.6-.516L77.934.734h4.08a.367.367,0,0,0,0-.734H76.843a1.846,1.846,0,0,0-1.791,1.442L73.873,6.808h-.335a1.1,1.1,0,0,0-1.1,1.1v1.2a1.1,1.1,0,0,0,1.1,1.1h.3l1.347,13.135A1.83,1.83,0,0,0,77.008,25h5.268a.367.367,0,0,0,0-.734H77.008a1.1,1.1,0,0,1-1.1-.99l-1.339-13.06h2.806a.367.367,0,0,0,0-.734H73.538a.368.368,0,0,1-.367-.368V7.91a.368.368,0,0,1,.367-.368h18.8a.368.368,0,0,1,.367.368v1.2a.368.368,0,0,1-.367.368h-13.5a.367.367,0,0,0,0,.734H91.306l-1.339,13.06a1.1,1.1,0,0,1-1.1.99H83.742a.367.367,0,0,0,0,.734h5.129A1.83,1.83,0,0,0,90.7,23.351l1.347-13.135h.3a1.1,1.1,0,0,0,1.1-1.1V7.91A1.1,1.1,0,0,0,92.341,6.808ZM75.767,1.6A1.108,1.108,0,0,1,76.843.734h.348l.625,3.908a1.34,1.34,0,0,0,1.328,1.134h7.591a1.34,1.34,0,0,0,1.328-1.134L88.688.734h.348a1.108,1.108,0,0,1,1.076.866l1.144,5.208H74.623Z" transform="translate(823.562 172)"/><text class="b" transform="translate(886 209)"><tspan x="0" y="0">Deletar</tspan></text></g></svg>