<svg xmlns="http://www.w3.org/2000/svg" width="33" height="41.04" viewBox="0 0 33 41.04"><defs><style>.a,.b{fill:#585858;}.b{font-size:13px;font-family:Seravek-Light, Seravek;font-weight:300;}</style></defs><g transform="translate(-826 -174.96)"><g transform="translate(829 174.699)"><path class="a" d="M22.685,53.532c-.363,0-.328.288-.328.644V59.9a2.62,2.62,0,0,1-2.629,2.577H3.283A2.676,2.676,0,0,1,.654,59.9v-15.5a2.743,2.743,0,0,1,2.629-2.577h5.83c.363,0,.657.035.657-.321s-.294-.324-.657-.324H3.283A3.256,3.256,0,0,0,0,44.393V59.9a3.256,3.256,0,0,0,3.283,3.222H19.728A3.256,3.256,0,0,0,23.01,59.9V54.176C23.01,53.82,23.047,53.532,22.685,53.532Zm0,0" transform="translate(0 -37.857)"/><path class="a" d="M.188,18.7a.644.644,0,0,1-.165-.627l1.511-5.454a.645.645,0,0,1,.165-.283L13.188.849a2.9,2.9,0,0,1,4.1,0l.086.086-.007,0a.321.321,0,1,1-.446.447l0,.008-.087-.087A2.41,2.41,0,0,0,15.2.6a2.173,2.173,0,0,0-1.556.706L12.505,2.443l3.942,3.942,1.138-1.138A2.325,2.325,0,0,0,17.7,2.18l.013,0a.321.321,0,1,1,.447-.446h0A2.9,2.9,0,0,1,18.041,5.7L6.553,17.191a.645.645,0,0,1-.284.165L.815,18.867a.62.62,0,0,1-.172.024A.642.642,0,0,1,.188,18.7Zm.338-.392,5.662-1.618L2.2,12.736ZM2.648,12.3l3.941,3.942,9.4-9.4L12.049,2.9Z" transform="translate(6.115 0.26)"/></g><text class="b" transform="translate(826 212)"><tspan x="0" y="0">Editar</tspan></text></g></svg>