<svg xmlns="http://www.w3.org/2000/svg" width="40" height="40" viewBox="0 0 40 40"><defs><style>.a{fill:#585858;}</style></defs><g transform="translate(-10.19 -11.86)"><g transform="translate(13.523 21.027)"><path class="a" d="M62.027,128.577h-32a.855.855,0,0,1,0-1.667h32a.855.855,0,0,1,0,1.667Z" transform="translate(-29.36 -116.91)"/><path class="a" d="M106.772,71.937H98.008c-.342,0-.618-.373-.618-.833s.277-.833.618-.833h8.763c.342,0,.618.373.618.833S107.113,71.937,106.772,71.937Z" transform="translate(-85.723 -70.27)"/><path class="a" d="M106.772,185.207H98.008c-.342,0-.618-.373-.618-.833s.277-.833.618-.833h8.763c.342,0,.618.373.618.833S107.113,185.207,106.772,185.207Z" transform="translate(-85.723 -163.54)"/></g><path class="a" d="M50.19,31.359A20,20,0,0,1,17.5,46.819l-.007-.005-.07-.059a.034.034,0,0,1-.013-.013.781.781,0,0,1-.229-.559.738.738,0,0,1,.709-.763.675.675,0,0,1,.453.177l0,0a18.488,18.488,0,1,0-2.729-2.8.057.057,0,0,1,.012.018.83.83,0,0,1,.151.483.753.753,0,0,1-.709.79.665.665,0,0,1-.505-.238.481.481,0,0,1-.045-.057A20,20,0,1,1,50.19,31.359Z" transform="translate(0 0.5)"/></g></svg>