<svg xmlns="http://www.w3.org/2000/svg" width="40" height="40" viewBox="0 0 40 40"><defs><style>.a{fill:#585858;}</style></defs><g transform="translate(-10.19 -11.86)"><g transform="translate(17.732 19.402)"><path class="a" d="M32.667,1.667h-32A.763.763,0,0,1,0,.833.763.763,0,0,1,.664,0h32a.763.763,0,0,1,.664.833A.764.764,0,0,1,32.667,1.667Z" transform="translate(1.262 0.084) rotate(45)"/><path class="a" d="M9.382,1.667H.618C.277,1.667,0,1.294,0,.833S.277,0,.618,0H9.382C9.723,0,10,.373,10,.833S9.723,1.667,9.382,1.667Z" transform="translate(16.667 7.071) rotate(-45)"/><path class="a" d="M9.382,1.667H.618C.277,1.667,0,1.294,0,.833S.277,0,.618,0H9.382C9.723,0,10,.373,10,.833S9.723,1.667,9.382,1.667Z" transform="translate(0 23.738) rotate(-45)"/></g><path class="a" d="M50.19,31.359A20,20,0,0,1,17.5,46.819l-.007-.005-.07-.059a.034.034,0,0,1-.013-.013.781.781,0,0,1-.229-.559.738.738,0,0,1,.709-.763.675.675,0,0,1,.453.177l0,0a18.488,18.488,0,1,0-2.729-2.8.057.057,0,0,1,.012.018.83.83,0,0,1,.151.483.753.753,0,0,1-.709.79.665.665,0,0,1-.505-.238.481.481,0,0,1-.045-.057A20,20,0,1,1,50.19,31.359Z" transform="translate(0 0.5)"/></g></svg>