<svg xmlns="http://www.w3.org/2000/svg" width="24" height="30" viewBox="0 0 24 30"><defs><style>.a{fill:#000438;}</style></defs><g transform="translate(0 -1.967)"><path class="a" d="M2.727,3.546H4.909A1.609,1.609,0,0,1,6.545,1.967H17.455a1.609,1.609,0,0,1,1.636,1.579h2.182A2.684,2.684,0,0,1,24,6.178V19.423a.546.546,0,0,1-1.091,0V6.178A1.609,1.609,0,0,0,21.273,4.6H19.091V5.651h2.182a.536.536,0,0,1,.545.526V29.336a.536.536,0,0,1-.545.526H2.727a.536.536,0,0,1-.545-.526V6.178a.536.536,0,0,1,.545-.526H4.909V4.6H2.727A1.609,1.609,0,0,0,1.091,6.178V29.336a1.609,1.609,0,0,0,1.636,1.579H21.273a1.609,1.609,0,0,0,1.636-1.579V23.02a.546.546,0,0,1,1.091,0v6.316a2.684,2.684,0,0,1-2.727,2.632H2.727A2.684,2.684,0,0,1,0,29.336V6.178A2.684,2.684,0,0,1,2.727,3.546ZM3.273,6.7V28.809H20.727V6.7H19.091a1.609,1.609,0,0,1-1.636,1.579H10.909a.527.527,0,1,1,0-1.053h6.545A.536.536,0,0,0,18,6.7V3.546a.536.536,0,0,0-.545-.526H6.545A.536.536,0,0,0,6,3.546V6.7a.536.536,0,0,0,.545.526h4.461v.526l-.1.526H6.545A1.609,1.609,0,0,1,4.909,6.7Zm0,0"/><path class="a" d="M108.1,72.517a.517.517,0,0,0-.517-.517h-3.068a.517.517,0,0,0,0,1.035h3.068A.517.517,0,0,0,108.1,72.517Z" transform="translate(-96.884 -67.483)"/><path class="a" d="M108.1,72.517a.517.517,0,0,0-.517-.517h-3.068a.517.517,0,0,0,0,1.035h3.068A.517.517,0,0,0,108.1,72.517Z" transform="translate(-91.487 -67.483)"/><g transform="translate(4.97 5.684)"><g transform="translate(1.114 5.573)"><path class="a" d="M136.517,161.035h5.173a.517.517,0,0,0,0-1.035h-5.173a.517.517,0,0,0,0,1.035Zm0,0" transform="translate(-130.645 -159.289)"/><path class="a" d="M72.365,201.035H78.94c.2,0,.365-.232.365-.517S79.142,200,78.94,200H72.365c-.2,0-.365.232-.365.517S72.164,201.035,72.365,201.035Zm0,0" transform="translate(-66.592 -197.726)"/><path class="a" d="M265.035,160.517a.517.517,0,1,1-.517-.517A.517.517,0,0,1,265.035,160.517Zm0,0" transform="translate(-252.321 -159.289)"/></g><path class="a" d="M171.279,314.843a.331.331,0,0,0-.468,0l-1.638,1.638-.7-.7a.331.331,0,1,0-.468.468l.936.936a.331.331,0,0,0,.468,0l1.872-1.872A.331.331,0,0,0,171.279,314.843Zm0,0" transform="translate(-167.058 -307.972)"/><path class="a" d="M131.31,264a3.31,3.31,0,1,0,0,6.62.331.331,0,0,0,0-.662,2.648,2.648,0,1,1,1.872-.775.331.331,0,0,0,.468.468,3.31,3.31,0,0,0-2.34-5.65Zm0,0" transform="translate(-128.823 -259.202)"/></g><g transform="translate(4.97 13.684)"><g transform="translate(1.114 5.573)"><path class="a" d="M136.517,161.035h5.173a.517.517,0,0,0,0-1.035h-5.173a.517.517,0,0,0,0,1.035Zm0,0" transform="translate(-130.645 -159.289)"/><path class="a" d="M72.365,201.035H78.94c.2,0,.365-.232.365-.517S79.142,200,78.94,200H72.365c-.2,0-.365.232-.365.517S72.164,201.035,72.365,201.035Zm0,0" transform="translate(-66.592 -197.726)"/><path class="a" d="M265.035,160.517a.517.517,0,1,1-.517-.517A.517.517,0,0,1,265.035,160.517Zm0,0" transform="translate(-252.321 -159.289)"/></g><path class="a" d="M131.31,264a3.31,3.31,0,1,0,0,6.62.331.331,0,0,0,0-.662,2.648,2.648,0,1,1,1.872-.775.331.331,0,0,0,.468.468,3.31,3.31,0,0,0-2.34-5.65Zm0,0" transform="translate(-128.823 -259.202)"/></g></g></svg>