<svg xmlns="http://www.w3.org/2000/svg" xmlns:xlink="http://www.w3.org/1999/xlink" width="167.002" height="50" viewBox="0 0 167.002 50"><defs><style>.a{fill:#8fd400;}.b{fill:url(#a);}.c,.e{fill:#3e4095;}.d{fill:url(#b);}.e{stroke:#3e4095;stroke-miterlimit:10;stroke-width:0.5px;}</style><linearGradient id="a" x1="0.421" y1="1.106" x2="0.573" y2="-0.023" gradientUnits="objectBoundingBox"><stop offset="0.051" stop-color="#b4e254"/><stop offset="0.166" stop-color="#b1e14e"/><stop offset="0.327" stop-color="#a9de3c"/><stop offset="0.513" stop-color="#9cd91e"/><stop offset="0.67" stop-color="#8fd400"/></linearGradient><linearGradient id="b" x1="0.277" y1="1.381" x2="0.66" y2="-0.111" gradientUnits="objectBoundingBox"><stop offset="0" stop-color="#898bbe"/><stop offset="0.284" stop-color="#6062a8"/><stop offset="0.5" stop-color="#3e4095"/></linearGradient></defs><g transform="translate(-7.67 -10.46)"><g transform="translate(17.336 20.355)"><path class="a" d="M43.125,45.5A8.618,8.618,0,0,1,37.1,47.942,8.471,8.471,0,1,1,37.1,31a8.618,8.618,0,0,1,6.028,2.439l4.72-4.72A15.394,15.394,0,0,0,37.1,24.37,15.1,15.1,0,1,0,47.845,50.223Z" transform="translate(-21.78 -24.363)"/><path class="b" d="M28.5,39.465A8.619,8.619,0,0,1,43.125,33.43l4.72-4.72A15.394,15.394,0,0,0,37.1,24.36a15.211,15.211,0,0,0-15.317,15.1,11.8,11.8,0,0,0,.116,1.726,13.639,13.639,0,0,0,6.782-.021A10.22,10.22,0,0,1,28.5,39.465Z" transform="translate(-21.78 -24.36)"/></g><path class="c" d="M44.346,47.338a16.676,16.676,0,1,1,0-23.755l5.836-5.925a25,25,0,1,0,0,35.605Z"/><path class="d" d="M15.986,35.087A16.547,16.547,0,0,1,32.646,18.66a16.748,16.748,0,0,1,11.693,4.727l5.836-5.836a25.067,25.067,0,0,0-17.53-7.09A24.808,24.808,0,0,0,7.67,35.087c0,.8,3.7,2.247,8.385,1.48A13.141,13.141,0,0,1,15.986,35.087Z" transform="translate(0 0)"/><g transform="translate(38.587 28.473)"><path class="c" d="M66.271,43.088c0,4.453-2.747,7.145-6.809,7.145-4.117,0-6.542-3.048-6.542-6.919,0-4.055,2.672-7.1,6.761-7.1C63.942,36.217,66.271,39.334,66.271,43.088Zm-10.036.171c0,2.658,1.281,4.535,3.377,4.535,2.124,0,3.336-1.959,3.336-4.6,0-2.446-1.185-4.535-3.343-4.535C57.482,38.656,56.236,40.615,56.236,43.259Z" transform="translate(-52.92 -36.21)"/><path class="c" d="M87.02,44.925c-.062-1.644-.13-3.6-.123-5.59h-.055C86.4,41.075,85.814,43,85.293,44.6l-1.7,5.3H81.156l-1.493-5.247c-.445-1.6-.911-3.528-1.254-5.316h-.041c-.068,1.85-.144,3.939-.233,5.631l-.26,5.151h-2.9l.891-13.577h4.185L81.4,41.075c.438,1.555.87,3.261,1.178,4.857h.069c.377-1.569.849-3.363,1.322-4.877l1.473-4.514h4.11L90.3,50.117H87.246Z" transform="translate(-59.865 -36.314)"/><path class="c" d="M100.87,36.668a26.528,26.528,0,0,1,4.24-.288,6.793,6.793,0,0,1,4.247,1.1,3.885,3.885,0,0,1,1.473,3.137,4.212,4.212,0,0,1-1.267,3.213,6.566,6.566,0,0,1-4.507,1.439,7.62,7.62,0,0,1-1.069-.068V50.06h-3.11V36.668Zm3.11,6.158a4.641,4.641,0,0,0,1.041.082c1.665,0,2.7-.822,2.7-2.2,0-1.247-.877-1.993-2.459-1.993a6.107,6.107,0,0,0-1.281.1Z" transform="translate(-68.023 -36.264)"/><path class="c" d="M118.34,36.675a27.32,27.32,0,0,1,4.172-.295c2.062,0,3.5.308,4.494,1.075a3.416,3.416,0,0,1,1.288,2.843,3.615,3.615,0,0,1-2.452,3.336V43.7a3.424,3.424,0,0,1,1.856,2.528,38.13,38.13,0,0,0,1.123,3.829h-3.213a16.66,16.66,0,0,1-.952-3.165c-.384-1.7-.973-2.151-2.261-2.165h-.932v5.329h-3.11V36.675Zm3.117,5.836h1.226c1.555,0,2.487-.774,2.487-1.959,0-1.24-.87-1.877-2.309-1.884a6.6,6.6,0,0,0-1.411.1v3.74Z" transform="translate(-73.526 -36.264)"/><path class="c" d="M144.428,44.37h-5.11V47.6h5.713V50.11h-8.85V36.54h8.556v2.514h-5.419v2.829h5.11Z" transform="translate(-79.145 -36.314)"/></g><path class="c" d="M45.815,37.536,43.9,39.6s-1.034-1.726-4.09-1.432-3.891,3.548-3.891,4.631c0,1.63,1.082,4.679,4.042,4.679s3.891-1.329,3.891-1.329l1.973,2.021s-1.5,2.267-5.569,2.117a7.434,7.434,0,1,1,1.123-14.824A5.732,5.732,0,0,1,45.815,37.536Z" transform="translate(-8.073 -7.503)"/><g transform="translate(114.929 28.473)"><path class="c" d="M175.467,49.64a9.209,9.209,0,0,1-3.548.582c-4.809,0-7.289-2.939-7.289-6.809,0-4.631,3.391-7.193,7.583-7.193a8.1,8.1,0,0,1,3.418.6l-.637,2.425a6.706,6.706,0,0,0-2.637-.507,4.133,4.133,0,0,0-4.418,4.494,4.1,4.1,0,0,0,4.439,4.432A7.732,7.732,0,0,0,175,47.228Z" transform="translate(-164.63 -36.213)"/><path class="c" d="M191.718,44.37h-5.11V47.6h5.713V50.11h-8.85V36.54h8.556v2.514h-5.412v2.829h5.11V44.37Z" transform="translate(-170.564 -36.314)"/><path class="c" d="M199.53,36.675a27.32,27.32,0,0,1,4.172-.295c2.062,0,3.5.308,4.494,1.075a3.416,3.416,0,0,1,1.288,2.843,3.615,3.615,0,0,1-2.452,3.336V43.7a3.424,3.424,0,0,1,1.856,2.528,38.142,38.142,0,0,0,1.123,3.829H206.8a16.661,16.661,0,0,1-.952-3.165c-.39-1.7-.973-2.151-2.261-2.165h-.932v5.329h-3.11V36.675Zm3.11,5.836h1.226c1.555,0,2.487-.774,2.487-1.959,0-1.24-.87-1.877-2.309-1.884a6.6,6.6,0,0,0-1.411.1v3.74Z" transform="translate(-175.623 -36.264)"/><path class="c" d="M219.577,39.116H215.83V36.54h10.686v2.576h-3.8v11h-3.137Z" transform="translate(-180.757 -36.314)"/><path class="c" d="M245.4,43.088c0,4.453-2.747,7.145-6.809,7.145-4.117,0-6.542-3.048-6.542-6.919,0-4.055,2.672-7.1,6.761-7.1C243.072,36.217,245.4,39.334,245.4,43.088Zm-10.036.171c0,2.658,1.281,4.535,3.377,4.535,2.124,0,3.336-1.959,3.336-4.6,0-2.446-1.185-4.535-3.343-4.535C236.612,38.656,235.366,40.615,235.366,43.259Z" transform="translate(-185.866 -36.21)"/></g><rect class="a" width="103.904" height="0.801" transform="translate(70.766 45.559)"/><g transform="translate(98.583 51.014)"><path class="c" d="M141.151,68.7c.2-.041.418-.069.671-.1s.486-.034.692-.034a2.278,2.278,0,0,1,.658.089,1.347,1.347,0,0,1,.527.281,1.256,1.256,0,0,1,.343.514,1.829,1.829,0,0,1,.075.774,1.971,1.971,0,0,1-.438,1.144,1.809,1.809,0,0,1-.918.582l.336.315,1.117,2.377h-.74l-1.24-2.589-.733-.13-.24,2.72h-.63Zm1.329.486h-.206a1.99,1.99,0,0,0-.206.007l-.185.021a.672.672,0,0,0-.144.027l-.192,2.213h.6a1.355,1.355,0,0,0,.891-.295,1.252,1.252,0,0,0,.425-.911,1.033,1.033,0,0,0-.212-.767A1,1,0,0,0,142.48,69.187Z" transform="translate(-140.63 -68.57)"/><path class="c" d="M149.408,75.085a1.879,1.879,0,0,1-.6.329,2.276,2.276,0,0,1-.747.123,1.638,1.638,0,0,1-.74-.158,1.236,1.236,0,0,1-.486-.452,1.951,1.951,0,0,1-.24-.706,4.077,4.077,0,0,1-.021-.925,2.933,2.933,0,0,1,.582-1.671,1.6,1.6,0,0,1,1.288-.575,2.195,2.195,0,0,1,.514.062.958.958,0,0,1,.445.247,1.124,1.124,0,0,1,.288.514,2.6,2.6,0,0,1,.055.87,3.993,3.993,0,0,1-.1.63H147.2a3.093,3.093,0,0,0,.007.671,1.2,1.2,0,0,0,.171.493.767.767,0,0,0,.349.308,1.333,1.333,0,0,0,.555.11,1.472,1.472,0,0,0,.527-.1,1.275,1.275,0,0,0,.411-.24ZM148.4,71.639a1.044,1.044,0,0,0-.74.267,1.593,1.593,0,0,0-.4.911h1.884a1.307,1.307,0,0,0-.144-.911A.673.673,0,0,0,148.4,71.639Z" transform="translate(-142.497 -69.351)"/><path class="c" d="M155.288,73.2c-.027.295-.048.555-.062.795a4.736,4.736,0,0,0,.007.7h-.411l-.1-.61H154.7a1.474,1.474,0,0,1-.486.5,1.274,1.274,0,0,1-.692.2,1.151,1.151,0,0,1-1.082-.541,2.926,2.926,0,0,1-.219-1.692,2.841,2.841,0,0,1,.6-1.671,1.7,1.7,0,0,1,1.315-.569,2.356,2.356,0,0,1,.438.034,1.965,1.965,0,0,1,.343.11l.158-1.788h.61Zm-1.624.98a.906.906,0,0,0,.637-.226,1.413,1.413,0,0,0,.37-.692l.185-2.13a.711.711,0,0,0-.295-.171,1.645,1.645,0,0,0-.459-.055,1.07,1.07,0,0,0-.856.39,2.227,2.227,0,0,0-.4,1.247,4.163,4.163,0,0,0-.007.651,1.577,1.577,0,0,0,.116.514.79.79,0,0,0,.267.342A.743.743,0,0,0,153.664,74.184Z" transform="translate(-144.272 -68.602)"/><path class="c" d="M161.018,75.085a1.879,1.879,0,0,1-.6.329,2.276,2.276,0,0,1-.747.123,1.638,1.638,0,0,1-.74-.158,1.236,1.236,0,0,1-.486-.452,1.951,1.951,0,0,1-.24-.706,4.076,4.076,0,0,1-.021-.925,2.933,2.933,0,0,1,.582-1.671,1.6,1.6,0,0,1,1.288-.575,2.195,2.195,0,0,1,.514.062.958.958,0,0,1,.445.247,1.125,1.125,0,0,1,.288.514,2.6,2.6,0,0,1,.055.87,4,4,0,0,1-.1.63h-2.446a3.1,3.1,0,0,0,.007.671,1.2,1.2,0,0,0,.171.493.767.767,0,0,0,.349.308,1.333,1.333,0,0,0,.555.11,1.471,1.471,0,0,0,.527-.1,1.275,1.275,0,0,0,.411-.24Zm-1.007-3.446a1.044,1.044,0,0,0-.74.267,1.593,1.593,0,0,0-.4.911h1.884a1.307,1.307,0,0,0-.144-.911A.716.716,0,0,0,160.011,71.639Z" transform="translate(-146.153 -69.351)"/><path class="c" d="M169.868,73.2c-.027.295-.048.555-.062.795a4.738,4.738,0,0,0,.007.7H169.4l-.1-.61h-.027a1.474,1.474,0,0,1-.486.5,1.274,1.274,0,0,1-.692.2,1.151,1.151,0,0,1-1.082-.541,2.926,2.926,0,0,1-.219-1.692,2.841,2.841,0,0,1,.6-1.671,1.7,1.7,0,0,1,1.315-.569,2.356,2.356,0,0,1,.438.034,1.966,1.966,0,0,1,.343.11l.158-1.788h.61Zm-1.617.98a.906.906,0,0,0,.637-.226,1.413,1.413,0,0,0,.37-.692l.185-2.13a.711.711,0,0,0-.295-.171,1.645,1.645,0,0,0-.459-.055,1.07,1.07,0,0,0-.856.39,2.228,2.228,0,0,0-.4,1.247,4.163,4.163,0,0,0-.007.651,1.577,1.577,0,0,0,.116.514.79.79,0,0,0,.267.342A.715.715,0,0,0,168.251,74.184Z" transform="translate(-148.865 -68.602)"/><path class="c" d="M175.6,75.085a1.879,1.879,0,0,1-.6.329,2.276,2.276,0,0,1-.747.123,1.638,1.638,0,0,1-.74-.158,1.235,1.235,0,0,1-.486-.452,1.95,1.95,0,0,1-.24-.706,4.077,4.077,0,0,1-.021-.925,2.933,2.933,0,0,1,.582-1.671,1.6,1.6,0,0,1,1.288-.575,2.195,2.195,0,0,1,.514.062.958.958,0,0,1,.445.247,1.125,1.125,0,0,1,.288.514,2.6,2.6,0,0,1,.055.87,4,4,0,0,1-.1.63h-2.446a3.1,3.1,0,0,0,.007.671,1.2,1.2,0,0,0,.171.493.767.767,0,0,0,.349.308,1.334,1.334,0,0,0,.555.11,1.472,1.472,0,0,0,.527-.1,1.275,1.275,0,0,0,.411-.24Zm-1.007-3.446a1.044,1.044,0,0,0-.74.267,1.593,1.593,0,0,0-.4.911h1.884a1.308,1.308,0,0,0-.144-.911A.707.707,0,0,0,174.591,71.639Z" transform="translate(-150.746 -69.351)"/></g><g transform="translate(126.917 47.993)"><path class="e" d="M182.945,64.27a4.818,4.818,0,0,1,.514-.062c.192-.014.384-.021.582-.027s.4-.007.6-.014.377-.007.541-.007a3.871,3.871,0,0,1,1.7.343,2.838,2.838,0,0,1,1.123.959,3.76,3.76,0,0,1,.575,1.48,7.165,7.165,0,0,1,.062,1.9,7.855,7.855,0,0,1-.377,1.808,5.13,5.13,0,0,1-.829,1.541,4,4,0,0,1-1.329,1.075,4.141,4.141,0,0,1-1.877.4c-.123,0-.288,0-.493-.007s-.411-.014-.623-.027-.411-.027-.589-.034a2.107,2.107,0,0,1-.39-.041Zm2.165.87h-.336c-.123,0-.247.007-.363.014s-.226.021-.329.027-.178.021-.233.027l-.658,7.426q.062.01.226.021c.11.007.226.007.343.014s.233.007.342.014.185.007.226.007a2.977,2.977,0,0,0,1.425-.315,2.88,2.88,0,0,0,.98-.856,3.954,3.954,0,0,0,.589-1.233,7.206,7.206,0,0,0,.267-1.439,6.432,6.432,0,0,0-.014-1.308,3.276,3.276,0,0,0-.349-1.185,2.288,2.288,0,0,0-.788-.87A2.345,2.345,0,0,0,185.11,65.14Z" transform="translate(-182.13 -64.16)"/><path class="e" d="M196.622,69.151a1.817,1.817,0,0,0-.664-.13,1.142,1.142,0,0,0-.836.315,1.546,1.546,0,0,0-.438.788l-.411,4.644h-.952l.582-6.631h.664l.11.808h.048a2.272,2.272,0,0,1,.6-.7,1.36,1.36,0,0,1,.822-.247,2.724,2.724,0,0,1,.76.13Z" transform="translate(-185.655 -65.37)"/><path class="e" d="M199.148,71.43a4.57,4.57,0,0,1,.9-2.583,2.472,2.472,0,0,1,2.007-.9,2.424,2.424,0,0,1,1.137.247,1.912,1.912,0,0,1,.754.706,2.914,2.914,0,0,1,.377,1.1,6.09,6.09,0,0,1,.027,1.425,4.6,4.6,0,0,1-.9,2.583,2.493,2.493,0,0,1-2.007.9,2.425,2.425,0,0,1-1.137-.247,1.912,1.912,0,0,1-.754-.706,2.914,2.914,0,0,1-.377-1.1A6.486,6.486,0,0,1,199.148,71.43Zm.993,0a5.688,5.688,0,0,0,0,.966,2.542,2.542,0,0,0,.206.808,1.341,1.341,0,0,0,.452.555,1.192,1.192,0,0,0,.733.212q1.613.01,1.843-2.548a5.842,5.842,0,0,0,0-.98,2.685,2.685,0,0,0-.206-.808,1.375,1.375,0,0,0-.452-.548,1.236,1.236,0,0,0-.733-.206C200.9,68.875,200.292,69.724,200.141,71.43Z" transform="translate(-187.482 -65.354)"/><path class="e" d="M213.015,75.063a2.8,2.8,0,0,1-.781,1.9,2.677,2.677,0,0,1-1.863.61,5.024,5.024,0,0,1-1.137-.1,2.928,2.928,0,0,1-.719-.26l.329-.9a4.821,4.821,0,0,0,.589.226,2.919,2.919,0,0,0,.856.1,3,3,0,0,0,.822-.1,1.159,1.159,0,0,0,.534-.329,1.46,1.46,0,0,0,.315-.6,5.162,5.162,0,0,0,.151-.87l.055-.637h-.048a1.861,1.861,0,0,1-.658.589,2.076,2.076,0,0,1-.98.206,1.8,1.8,0,0,1-1.692-.836,4.491,4.491,0,0,1-.336-2.6,4.337,4.337,0,0,1,.952-2.583A2.845,2.845,0,0,1,211.625,68a5.007,5.007,0,0,1,1.151.116,4.772,4.772,0,0,1,.836.281ZM210.72,73.98a1.427,1.427,0,0,0,.98-.336,2.233,2.233,0,0,0,.582-1.055l.3-3.4a2.4,2.4,0,0,0-1.192-.253,1.654,1.654,0,0,0-1.322.61,3.4,3.4,0,0,0-.63,1.911,5.669,5.669,0,0,0-.007,1.021,2.374,2.374,0,0,0,.192.795,1.25,1.25,0,0,0,.418.514A1.091,1.091,0,0,0,210.72,73.98Z" transform="translate(-190.409 -65.37)"/><path class="e" d="M218.142,68.636a3.516,3.516,0,0,1,1.089-.452,5.53,5.53,0,0,1,1.267-.144,2.118,2.118,0,0,1,.973.185,1.219,1.219,0,0,1,.527.486,1.761,1.761,0,0,1,.206.658,4.209,4.209,0,0,1,0,.719c-.048.527-.1,1.048-.171,1.555s-.123.98-.164,1.432c-.027.329-.041.637-.048.932a4.91,4.91,0,0,0,.062.808h-.7l-.171-.932h-.062a2.418,2.418,0,0,1-.3.363,1.919,1.919,0,0,1-.411.315,2.431,2.431,0,0,1-.541.233,2.339,2.339,0,0,1-.685.089,1.788,1.788,0,0,1-.7-.13,1.4,1.4,0,0,1-.527-.377,1.587,1.587,0,0,1-.322-.589,2.057,2.057,0,0,1-.068-.781,2.145,2.145,0,0,1,.3-.973,1.853,1.853,0,0,1,.658-.623,2.83,2.83,0,0,1,.959-.329,6.593,6.593,0,0,1,1.206-.1h.329a1.7,1.7,0,0,1,.322.027,6.669,6.669,0,0,0,.1-.712,1.458,1.458,0,0,0-.171-1.021,1.164,1.164,0,0,0-.925-.295,3.412,3.412,0,0,0-.438.034,4.68,4.68,0,0,0-.486.1,3.888,3.888,0,0,0-.479.151,2.467,2.467,0,0,0-.4.2Zm1.219,5.316a1.686,1.686,0,0,0,.6-.1,1.94,1.94,0,0,0,.473-.253,1.6,1.6,0,0,0,.342-.336A2.094,2.094,0,0,0,221,72.9l.1-1.1-.336-.021c-.11-.007-.226-.007-.336-.007a5.1,5.1,0,0,0-.726.048,2.424,2.424,0,0,0-.63.171,1.226,1.226,0,0,0-.459.343,1.007,1.007,0,0,0-.212.548.939.939,0,0,0,.233.76A.922.922,0,0,0,219.361,73.952Z" transform="translate(-193.234 -65.382)"/><path class="e" d="M229.742,69.151a1.817,1.817,0,0,0-.664-.13,1.142,1.142,0,0,0-.836.315,1.547,1.547,0,0,0-.438.788l-.411,4.644h-.952l.582-6.631h.664l.11.808h.048a2.273,2.273,0,0,1,.6-.7,1.36,1.36,0,0,1,.822-.247,2.724,2.724,0,0,1,.76.13Z" transform="translate(-196.087 -65.37)"/><path class="e" d="M233.222,66.924h.952l-.582,6.631h-.952Zm-.027-2.014a.849.849,0,0,1,.233-.521.657.657,0,0,1,.486-.219.584.584,0,0,1,.466.219.7.7,0,0,1,.158.521.763.763,0,0,1-.247.507.738.738,0,0,1-.507.2.562.562,0,0,1-.452-.2A.738.738,0,0,1,233.195,64.91Z" transform="translate(-198.039 -64.163)"/><path class="e" d="M237.292,68.636a3.516,3.516,0,0,1,1.089-.452,5.53,5.53,0,0,1,1.267-.144,2.118,2.118,0,0,1,.973.185,1.219,1.219,0,0,1,.527.486,1.761,1.761,0,0,1,.205.658,4.2,4.2,0,0,1,0,.719c-.048.527-.1,1.048-.171,1.555s-.123.98-.164,1.432c-.027.329-.041.637-.048.932a4.908,4.908,0,0,0,.062.808h-.7l-.171-.932H240.1a2.418,2.418,0,0,1-.3.363,1.92,1.92,0,0,1-.411.315,2.431,2.431,0,0,1-.541.233,2.339,2.339,0,0,1-.685.089,1.788,1.788,0,0,1-.7-.13,1.4,1.4,0,0,1-.527-.377,1.588,1.588,0,0,1-.322-.589,2.057,2.057,0,0,1-.069-.781,2.146,2.146,0,0,1,.3-.973,1.853,1.853,0,0,1,.658-.623,2.83,2.83,0,0,1,.959-.329,6.594,6.594,0,0,1,1.206-.1H240a1.7,1.7,0,0,1,.322.027,6.661,6.661,0,0,0,.1-.712,1.457,1.457,0,0,0-.171-1.021,1.164,1.164,0,0,0-.925-.295,3.412,3.412,0,0,0-.438.034,4.678,4.678,0,0,0-.486.1,3.891,3.891,0,0,0-.48.151,2.469,2.469,0,0,0-.4.2Zm1.219,5.316a1.686,1.686,0,0,0,.6-.1,1.941,1.941,0,0,0,.473-.253,1.6,1.6,0,0,0,.343-.336,2.1,2.1,0,0,0,.219-.356l.1-1.1-.336-.021c-.11-.007-.226-.007-.336-.007a5.1,5.1,0,0,0-.726.048,2.424,2.424,0,0,0-.63.171,1.226,1.226,0,0,0-.459.343,1.007,1.007,0,0,0-.212.548.939.939,0,0,0,.233.76A.955.955,0,0,0,238.511,73.952Z" transform="translate(-199.266 -65.382)"/><path class="e" d="M248.169,72.95a.816.816,0,0,0-.158-.623,1.625,1.625,0,0,0-.493-.377c-.2-.1-.425-.2-.664-.295a2.765,2.765,0,0,1-.658-.356,1.5,1.5,0,0,1-.61-1.487,1.964,1.964,0,0,1,.61-1.4,2.091,2.091,0,0,1,1.391-.445,3.861,3.861,0,0,1,1.062.123,3.406,3.406,0,0,1,.726.3l-.3.877a3.141,3.141,0,0,0-.637-.26,2.826,2.826,0,0,0-.815-.11,1.321,1.321,0,0,0-.788.2.926.926,0,0,0-.3.692.621.621,0,0,0,.164.534,1.884,1.884,0,0,0,.5.343c.2.1.425.2.664.3a2.626,2.626,0,0,1,.658.384,1.715,1.715,0,0,1,.473.6,1.787,1.787,0,0,1,.13.959,2.755,2.755,0,0,1-.192.795,1.815,1.815,0,0,1-.445.637,2.09,2.09,0,0,1-.685.418,2.568,2.568,0,0,1-.925.151,3.862,3.862,0,0,1-1.137-.144,3.214,3.214,0,0,1-.767-.343l.363-.9a2.8,2.8,0,0,0,.685.315,2.735,2.735,0,0,0,.877.144,1.557,1.557,0,0,0,.863-.226A.978.978,0,0,0,248.169,72.95Z" transform="translate(-201.923 -65.36)"/></g></g></svg>